<svg height="496pt" viewBox="0 0 496.472 496" width="496pt" xmlns="http://www.w3.org/2000/svg"><g fill="#f0bc5e"><path d="m249.519531 336.234375c9.359375 0 18.320313 3.363281 25.359375 9.523437l39.921875 34.957032c8.398438 7.28125 13.199219 17.921875 13.199219 29.042968 0 9.359376-3.359375 18.316407-9.519531 25.359376l-1.679688 1.917968-92.402343-92.398437-.160157-.242188c6.722657-5.277343 15.121094-8.160156 23.761719-8.160156zm0 0"/><path d="m160 246.714844v1.519531c0 8.640625-2.878906 17.042969-8.238281 23.761719l-92.480469-92.480469-.082031-.078125 1.921875-1.679688c7.039062-6.160156 16-9.523437 25.359375-9.523437 11.121093 0 21.757812 4.800781 29.039062 13.203125l34.960938 39.917969c6.160156 7.039062 9.519531 16 9.519531 25.359375zm0 0"/><path d="m336 .234375c-57.34375 0-104 46.65625-104 104v48h8.183594c0-1.046875-.136719-2.070313-.03125-3.140625 1.582031-16.640625 16.511718-28.859375 33.222656-28.859375h4.679688c21.730468 0 42.578124-8.628906 57.945312-24 15.367188 15.371094 36.207031 24 57.945312 24h4.679688c16.710938 0 31.640625 12.21875 33.222656 28.859375.105469 1.070312-.03125 2.085938-.03125 3.140625h8.183594v-48c0-57.34375-46.65625-104-104-104zm0 0"/></g><path d="m496.472656 316.4375c0-24.875-16.703125-47.015625-40.617187-53.839844l-71.382813-20.394531v-20.878906c8.742188-7.992188 15.503906-18.089844 19.480469-29.503907 9.773437-.984374 18.984375-5.34375 25.648437-12.679687 7.558594-8.320313 11.285157-19.542969 10.214844-30.808594-1.9375-20.238281-20.023437-36.097656-41.191406-36.097656h-4.679688c-19.753906 0-38.320312-7.6875-52.289062-21.65625l-5.65625-5.652344-5.65625 5.652344c-13.96875 13.96875-32.535156 21.65625-52.289062 21.65625h-6.054688v.027344c-20.566406.664062-37.921875 16.269531-39.816406 36.078125-1.070313 11.257812 2.65625 22.488281 10.214844 30.808594 6.664062 7.328124 15.875 11.6875 25.648437 12.679687 4.050781 11.625 10.976563 21.871094 19.953125 29.929687v20.453126l-71.382812 20.394531c-23.914063 6.816406-40.617188 28.957031-40.617188 53.832031v42.367188c-5.0625-1.296876-9.847656-3.730469-13.65625-7.535157l-17.375-17.378906c-5.695312-5.703125-8.96875-13.589844-8.96875-21.65625 0-8.0625 3.273438-15.949219 8.96875-21.65625l9.382812-9.390625c8.800782-8.792969 13.648438-20.488281 13.648438-32.925781v-1.53125c0-11.277344-4.097656-22.167969-11.519531-30.664063l-34.929688-39.917968c-8.855469-10.113282-21.621093-15.914063-35.054687-15.914063-11.289063 0-22.175782 4.097656-30.671875 11.523437l-30.183594 26.414063c-16.296875 14.257813-25.640625 34.847656-25.640625 56.496094 0 12.863281 3.335938 25.59375 9.640625 36.808593 42.136719 74.902344 103.167969 138.191407 176.511719 183.015626l18 11c11.511718 7.023437 24.71875 10.742187 38.214844 10.742187 21.144531 0 41.25-9.125 55.160156-25.03125l26.945312-30.800781c7.429688-8.488282 11.527344-19.375 11.527344-30.664063 0-3.222656-.351562-6.40625-1-9.503906h161.472656zm-87.03125-50.457031-27.746094 49.925781-33.847656-28.207031 30.585938-30.582031zm14.445313-116.128907c.65625 6.878907-1.519531 13.464844-6.125 18.519532-2.761719 3.03125-6.28125 5.167968-10.097657 6.464844.199219-2.175782.335938-4.367188.335938-6.601563v-38.277344c8.609375 3.261719 15.023438 10.847657 15.886719 19.894531zm-169.648438 18.527344c-4.605469-5.0625-6.78125-11.640625-6.125-18.519531.863281-9.046875 7.277344-16.632813 15.886719-19.894531v38.269531c0 2.234375.136719 4.425781.335938 6.609375-3.816407-1.304688-7.335938-3.433594-10.097657-6.464844zm25.761719-.144531v-40.085937c20.71875-.441407 40.296875-7.785157 56-21.054688 15.703125 13.269531 35.28125 20.613281 56 21.054688v40.085937c0 30.875-25.121094 56-56 56s-56-25.125-56-56zm56 72c11.6875 0 22.695312-2.855469 32.472656-7.824219v12.042969l-32.472656 32.472656-32-32v-12.289062c9.65625 4.824219 20.496094 7.597656 32 7.597656zm-42.328125 16.984375 30.480469 30.480469-33.847656 28.207031-27.671876-49.8125zm18.769531 172.65625-26.945312 30.800781c-10.878906 12.425781-26.601563 19.558594-43.128906 19.558594-10.550782 0-20.878907-2.902344-29.871094-8.40625l-18-11c-71.007813-43.398437-130.113282-104.671875-170.910156-177.199219-4.960938-8.824218-7.585938-18.839844-7.585938-28.960937 0-17.03125 7.351562-33.230469 20.167969-44.449219l30.183593-26.414062c5.585938-4.878907 12.738282-7.570313 20.144532-7.570313 8.816406 0 17.199218 3.808594 23.007812 10.441406l34.929688 39.921875c4.878906 5.574219 7.566406 12.726563 7.566406 20.132813v1.53125c0 8.167969-3.175781 15.839843-8.960938 21.613281l-9.382812 9.394531c-8.679688 8.679688-13.65625 20.695313-13.65625 32.964844 0 12.273437 4.976562 24.289063 13.65625 32.96875l17.375 17.375c8.800781 8.808594 20.511719 13.65625 32.96875 13.65625s24.167969-4.847656 32.96875-13.65625l9.382812-9.390625c5.785157-5.777344 13.464844-8.953125 21.632813-8.953125h1.519531c7.40625 0 14.558594 2.691406 20.136719 7.570313l39.917969 34.925781c6.632812 5.800781 10.441406 14.195312 10.441406 23.007812 0 7.410157-2.6875 14.5625-7.558594 20.136719zm168.03125-45.640625h-48.234375v-56h-16v56h-87.917969c-2.296874-3.496094-5.015624-6.734375-8.222656-9.542969l-39.914062-34.925781c-8.503906-7.433594-19.390625-11.53125-30.679688-11.53125h-1.519531c-12.441406 0-24.136719 4.839844-32.9375 13.640625l-9.382813 9.394531c-3.816406 3.804688-8.59375 6.238281-13.65625 7.535157v-42.367188c0-17.769531 11.929688-33.578125 29.007813-38.457031l25.824219-7.375 38.863281 69.957031 42.296875-35.246094v62.917969h16v-62.917969l42.304688 35.246094 38.925781-70.070312 26.234375 7.496093c17.078125 4.871094 29.007812 20.6875 29.007812 38.457031zm0 0"/></svg>