<svg height="496pt" viewBox="0 0 496 496" width="496pt" xmlns="http://www.w3.org/2000/svg"><path d="M432 350.559V273.44l-30.512-6.097a158.73 158.73 0 00-13.367-32.297l17.254-25.879-54.535-54.535-25.88 17.254a158.73 158.73 0 00-32.296-13.367L286.56 128h-77.12l-6.097 30.512a158.943 158.943 0 00-32.032 13.207l-26.199-17.047-54.433 54.433 17.047 26.2a159.222 159.222 0 00-13.125 31.718L64 273.512v76.968l30.602 6.489a158.762 158.762 0 0013.125 31.719L90.68 414.887l54.433 54.433 26.2-17.047a159.222 159.222 0 0031.718 13.125l6.48 30.602h76.97l6.488-30.602a158.895 158.895 0 0031.984-13.277l25.879 17.254 54.535-54.535-17.254-25.88a158.73 158.73 0 0013.367-32.296zM248 360c-26.512 0-48-21.488-48-48s21.488-48 48-48 48 21.488 48 48-21.488 48-48 48zm0 0" fill="#f0bc5e"/><path d="M240 160h16v16h-16zm-105.133 50.172l11.313-11.313 11.316 11.313-11.316 11.316zM96 304h16v16H96zm38.863 109.82l11.317-11.316 11.312 11.316-11.312 11.313zM240 448h16v16h-16zm98.504-34.18l11.312-11.312 11.313 11.312-11.313 11.313zM384 304h16v16h-16zm-45.496-93.824l11.316-11.317 11.313 11.317-11.313 11.312zM248 416c-57.344 0-104-46.656-104-104s46.656-104 104-104 104 46.656 104 104-46.656 104-104 104zm0-192c-48.52 0-88 39.48-88 88s39.48 88 88 88 88-39.48 88-88-39.48-88-88-88zm0 0"/><path d="M248 368c-30.871 0-56-25.121-56-56s25.129-56 56-56 56 25.121 56 56-25.129 56-56 56zm0-96c-22.055 0-40 17.945-40 40s17.945 40 40 40 40-17.945 40-40-17.945-40-40-40zm184 144h16v16h-16zm0 32h16v16h-16zm16-16h16v16h-16zm-32 0h16v16h-16zm-400 0h16v16H16zm0 32h16v16H16zm16-16h16v16H32zm-32 0h16v16H0zm464-288h16v16h-16zm0 32h16v16h-16zm16-16h16v16h-16zm-32 0h16v16h-16zm-416 0h16v16H32zm0 32h16v16H32zm16-16h16v16H48zm-32 0h16v16H16zm408-48c-23.992 0-46.496-12.152-59.8-32H131.8c-13.304 19.848-35.808 32-59.8 32-16.512 0-32.09-5.512-45.023-15.938L24 125.665V96h35.055l12-24-12-24H24V18.336l2.977-2.398C39.91 5.511 55.488 0 72 0c23.992 0 46.496 12.152 59.8 32h232.407C377.504 12.152 400.007 0 424 0c16.512 0 32.09 5.512 45.023 15.938L472 18.335V48h-35.055l-12 24 12 24H472v29.664l-2.977 2.398C456.09 138.488 440.512 144 424 144zM122.762 96h250.484l2.313 3.992C385.559 117.266 404.129 128 424 128c11.586 0 22.566-3.496 32-10.145V112h-28.945l-20-40 20-40H456v-5.855C446.566 19.496 435.586 16 424 16c-19.871 0-38.441 10.734-48.45 28.008L373.239 48H122.762l-2.313-3.992C110.441 26.734 91.871 16 72 16c-11.586 0-22.566 3.496-32 10.145V32h28.945l20 40-20 40H40v5.855C49.434 124.504 60.414 128 72 128c19.871 0 38.441-10.734 48.45-28.008zm0 0"/></svg>