<svg height="496pt" viewBox="0 0 496 496" width="496pt" xmlns="http://www.w3.org/2000/svg"><path d="M152 115.648h-16V81.793l23.145-5.914c.16-.39.32-.781.488-1.168L147.44 54.168l42.727-42.727 20.535 12.184c.395-.168.785-.328 1.168-.488L217.793 0h60.422l5.914 23.145c.39.16.781.32 1.168.488l20.535-12.184 42.727 42.727-12.184 20.535c.168.394.328.785.488 1.168L360 81.793v33.848h-16V94.207l-19.258-4.91-1.43-4.031a75.417 75.417 0 00-3.16-7.625l-1.84-3.848 10.145-17.098-25.152-25.152-17.098 10.145-3.848-1.84a80.039 80.039 0 00-7.625-3.16l-4.03-1.43L265.792 16h-35.578l-4.91 19.258-4.032 1.43a77.352 77.352 0 00-7.632 3.152l-3.848 1.84-17.098-10.145-25.152 25.152 10.145 17.098-1.84 3.848a80.039 80.039 0 00-3.16 7.625l-1.43 4.031L152 94.207zm0 0"/><path d="M295.602 105.734C292.496 81.945 272.039 64 248 64c-23.992 0-44.457 17.902-47.586 41.656l-15.855-2.097C188.727 71.887 216.008 48 248 48c32.047 0 59.336 23.93 63.465 55.672zm0 0"/><path d="M279.129 119.465l-15.563-3.703A16.89 16.89 0 00264 112c0-8.824-7.176-16-16-16s-16 7.176-16 16c0 1.191.129 2.367.383 3.488l-15.606 3.528A31.63 31.63 0 01216 112c0-17.648 14.352-32 32-32s32 14.352 32 32a32.67 32.67 0 01-.871 7.465zm0 0"/><path d="M248.328 338.68L131.023 235.168A78.943 78.943 0 01104.32 176v-1.09c0-43.512 35.399-78.91 78.91-78.91 18.036 0 35.602 6.191 49.57 17.441l15.313 12.32 15.848-12.609C277.863 102.098 295.312 96 313.09 96c21.148 0 41.008 8.258 55.926 23.238 14.921 14.985 23.082 34.883 22.984 56.035l-.008 1.055c-.097 22.406-9.793 43.817-26.594 58.703zm0 0" fill="#f0bc5e"/><path d="M218.855 270l-66.664-58.832A46.93 46.93 0 01136.321 176h16a30.89 30.89 0 0010.464 23.168L229.457 258zm0 0"/><path d="M471.031 264c-6.574 0-13.008 2.664-17.656 7.313L404.687 320h-27.07l10.192-15.29A24.964 24.964 0 00392 290.856v-1.886c0-13.77-11.2-24.969-24.969-24.969-6.574 0-13.008 2.664-17.656 7.312l-76.969 76.97C261.832 358.854 256 372.921 256 387.878V432h-16v-44.121c0-14.957-5.832-29.024-16.406-39.598l-76.969-76.969c-4.648-4.648-11.082-7.312-17.656-7.312-13.77 0-24.969 11.2-24.969 24.969v1.886a24.94 24.94 0 004.191 13.848L118.383 320h-27.07l-48.688-48.688C37.977 266.664 31.543 264 24.969 264 11.199 264 0 275.2 0 288.969v1.886a24.94 24.94 0 004.191 13.848l46.899 70.352A55.892 55.892 0 0097.687 400H144c4.414 0 8 3.586 8 8v24h-16v64h224v-64h-16v-24c0-4.414 3.586-8 8-8h46.312c18.758 0 36.176-9.32 46.59-24.938l46.899-70.351A24.91 24.91 0 00496 290.855v-1.886c0-13.77-11.2-24.969-24.969-24.969zM144 384H97.687a39.922 39.922 0 01-33.28-17.816l-46.895-70.352A8.882 8.882 0 0116 290.855v-1.886c0-4.946 4.023-8.969 8.969-8.969a9.03 9.03 0 016.343 2.625L84.689 336h44.367l8.289 12.441 13.312-8.875-29.152-43.726a8.98 8.98 0 01-1.504-4.985v-1.886c0-4.946 4.023-8.969 8.969-8.969a9.03 9.03 0 016.344 2.625l76.968 76.969c7.551 7.55 11.719 17.597 11.719 28.285V432h-56v-24c0-13.23-10.77-24-24-24zm96 96h-88v-32h88zm104 0h-88v-32h88zm136-189.145a8.94 8.94 0 01-1.504 4.977l-46.894 70.352A39.935 39.935 0 01398.312 384H352c-13.23 0-24 10.77-24 24v24h-56v-44.121c0-10.688 4.168-20.734 11.719-28.285l76.969-76.969A9.03 9.03 0 01367.03 280c4.946 0 8.969 4.023 8.969 8.969v1.886a8.94 8.94 0 01-1.504 4.977l-29.152 43.727 13.312 8.875 8.29-12.434h44.367l53.375-53.375A9.03 9.03 0 01471.03 280c4.946 0 8.969 4.023 8.969 8.969zm0 0"/></svg>