<svg height="496pt" viewBox="0 0 496.472 496" width="496pt" xmlns="http://www.w3.org/2000/svg"><path d="M249.52 336.234c9.359 0 18.32 3.364 25.359 9.524l39.922 34.957c8.398 7.281 13.199 17.922 13.199 29.043a38.4 38.4 0 01-9.52 25.36l-1.68 1.917-92.402-92.398-.16-.242c6.723-5.278 15.121-8.16 23.762-8.16zM160 246.715v1.52c0 8.64-2.879 17.042-8.238 23.761l-92.48-92.48-.083-.079 1.922-1.68c7.04-6.16 16-9.523 25.36-9.523 11.12 0 21.757 4.801 29.039 13.203l34.96 39.918c6.16 7.04 9.52 16 9.52 25.36zM336 .234c-57.344 0-104 46.657-104 104v48h8.184c0-1.047-.137-2.07-.032-3.14 1.582-16.64 16.512-28.86 33.223-28.86h4.68a81.937 81.937 0 0057.945-24 81.923 81.923 0 0057.945 24h4.68c16.71 0 31.64 12.22 33.223 28.86.105 1.07-.032 2.086-.032 3.14H440v-48c0-57.343-46.656-104-104-104zm0 0" fill="#f0bc5e"/><path d="M496.473 316.438c0-24.875-16.703-47.016-40.618-53.84l-71.382-20.395v-20.879c8.742-7.992 15.504-18.09 19.48-29.504 9.774-.984 18.985-5.343 25.649-12.68 7.558-8.32 11.285-19.542 10.214-30.808-1.937-20.238-20.023-36.098-41.191-36.098h-4.68c-19.754 0-38.32-7.687-52.289-21.656L336 84.926l-5.656 5.652c-13.969 13.969-32.535 21.656-52.29 21.656H272v.028c-20.566.664-37.922 16.27-39.816 36.078-1.07 11.258 2.656 22.488 10.214 30.808 6.665 7.329 15.875 11.688 25.649 12.68 4.05 11.625 10.976 21.871 19.953 29.93v20.453l-71.383 20.394C192.703 269.422 176 291.563 176 316.438v42.367c-5.063-1.297-9.848-3.73-13.656-7.535l-17.375-17.38c-5.696-5.702-8.969-13.59-8.969-21.656 0-8.062 3.273-15.949 8.969-21.656l9.383-9.39c8.8-8.793 13.648-20.489 13.648-32.926v-1.532a46.612 46.612 0 00-11.52-30.664l-34.93-39.918a46.584 46.584 0 00-35.054-15.914 46.593 46.593 0 00-30.672 11.524l-30.183 26.414A75.058 75.058 0 000 254.668a75.28 75.28 0 009.64 36.809c42.137 74.902 103.169 138.191 176.512 183.015l18 11a73.337 73.337 0 0038.215 10.742 73.27 73.27 0 0055.16-25.03l26.946-30.802A46.541 46.541 0 00336 409.738c0-3.222-.352-6.406-1-9.504h161.473zM409.44 265.98l-27.746 49.926-33.847-28.207 30.586-30.582zm14.446-116.128c.656 6.878-1.52 13.464-6.125 18.52-2.762 3.03-6.282 5.167-10.098 6.464.2-2.176.336-4.367.336-6.602v-38.277c8.61 3.262 15.023 10.848 15.887 19.895zm-169.649 18.527c-4.605-5.063-6.781-11.64-6.125-18.52.864-9.047 7.278-16.632 15.887-19.894v38.27c0 2.234.137 4.425.336 6.609-3.816-1.305-7.336-3.434-10.098-6.465zm25.762-.145v-40.086c20.719-.441 40.297-7.785 56-21.054 15.703 13.27 35.281 20.613 56 21.054v40.086c0 30.875-25.121 56-56 56s-56-25.125-56-56zm56 72c11.688 0 22.695-2.855 32.473-7.824v12.043L336 276.926l-32-32v-12.29c9.656 4.825 20.496 7.598 32 7.598zm-42.328 16.985l30.48 30.48-33.847 28.207-27.672-49.812zm18.77 172.656l-26.946 30.8a57.327 57.327 0 01-43.129 19.56 57.185 57.185 0 01-29.87-8.407l-18-11c-71.009-43.398-130.114-104.672-170.911-177.2A59.226 59.226 0 0116 254.669a59.07 59.07 0 0120.168-44.45l30.184-26.413a30.62 30.62 0 0120.144-7.57c8.817 0 17.2 3.808 23.008 10.44l34.93 39.923A30.564 30.564 0 01152 246.73v1.532c0 8.168-3.176 15.84-8.96 21.613l-9.384 9.395c-8.68 8.68-13.656 20.695-13.656 32.964 0 12.274 4.977 24.29 13.656 32.97l17.375 17.374c8.801 8.809 20.512 13.656 32.969 13.656s24.168-4.847 32.969-13.656l9.383-9.39c5.785-5.778 13.464-8.954 21.632-8.954h1.52a30.586 30.586 0 0120.137 7.57l39.918 34.926A30.578 30.578 0 01320 409.738a30.6 30.6 0 01-7.559 20.137zm168.03-45.64h-48.234v-56h-16v56H328.32c-2.297-3.497-5.015-6.735-8.222-9.544l-39.914-34.925a46.596 46.596 0 00-30.68-11.532h-1.52c-12.441 0-24.136 4.84-32.937 13.641l-9.383 9.395c-3.816 3.804-8.594 6.238-13.656 7.535v-42.367c0-17.77 11.93-33.579 29.008-38.458l25.824-7.375 38.863 69.958L328 305.316v62.918h16v-62.918l42.305 35.247 38.925-70.07 26.235 7.495c17.078 4.871 29.008 20.688 29.008 38.457zm0 0"/></svg>