<svg xmlns="http://www.w3.org/2000/svg" viewBox="0 0 426.667 426.667"><path d="M362.675 64H63.992C28.657 64 0 92.686 0 128.071v170.524c0 35.434 28.65 64.071 63.992 64.071h298.683c35.334 0 63.992-28.686 63.992-64.071V128.071c0-35.434-28.65-64.071-63.992-64.071zM384 298.595c0 11.83-9.563 21.405-21.325 21.405H63.992c-11.787 0-21.325-9.545-21.325-21.405V128.071c0-11.83 9.563-21.405 21.325-21.405h298.683c11.787 0 21.325 9.545 21.325 21.405v170.524z"/><path d="M329.396 129.882l-117.068 79.044-117.067-79.044-23.876 35.361 140.943 95.165 140.943-95.165z"/></svg>