<svg xmlns="http://www.w3.org/2000/svg" viewBox="0 0 225.9 63.4"><path d="M29.6 33.4h-4.1V14.1H15.3v19.3h-4.1V10.3h18.4v23.1zm10.5 0H36V10.3h4.1v11l9.1-11h4.9l-9.5 10.8 10.1 12.3h-5.1l-9.4-11.9v11.9zm36.5 0h-4.1V14.1H62.3v19.3h-4.1V10.3h18.4v23.1zm28.3-23.1h4.1L101.1 28c-.8 1.8-1.7 3.2-2.7 4.1-1 .9-2.2 1.3-3.5 1.3-1.4 0-2.4-.3-3.2-.9l1.4-3.4c.6.4 1.1.6 1.7.6 1 0 1.8-.5 2.3-1.6l.3-.8-10.2-17h4.6l7.6 12.9 5.5-12.9zm7.3 29.7h-3.8V18.6h3.8V20c.5-.5 1.1-1 2-1.3.8-.3 1.7-.5 2.6-.5 2 0 3.7.7 4.9 2.1 1.2 1.4 1.8 3.2 1.8 5.4 0 2.3-.7 4.2-2.2 5.7-1.5 1.5-3.3 2.3-5.7 2.3-1.5 0-2.7-.2-3.5-.7v7zm3.4-18.2c-1.3 0-2.5.5-3.4 1.6v6c.9.6 1.9.9 3.1.9 1.3 0 2.3-.4 3-1.2.8-.8 1.1-1.9 1.1-3.2 0-1.2-.3-2.2-1-3-.6-.7-1.5-1.1-2.8-1.1zm12.4.6l-1-2.8c1.6-.9 3.4-1.4 5.2-1.4 2.1 0 3.6.5 4.5 1.5.9 1 1.4 2.6 1.4 4.7v9H135v-1.7c-.9 1.3-2.3 1.9-4.4 1.9-1.4 0-2.5-.4-3.4-1.2-.8-.8-1.3-1.9-1.3-3.3 0-1.5.5-2.7 1.5-3.6 1-.8 2.3-1.3 3.9-1.3 1.3 0 2.5.3 3.4 1 0-1.3-.1-2.3-.6-2.9-.4-.6-1.2-.9-2.2-.9-1.1 0-2.4.3-3.9 1zm3.8 8c1.3 0 2.2-.5 2.9-1.4v-1.5c-.6-.5-1.5-.7-2.6-.7-.7 0-1.3.2-1.7.5-.4.3-.7.8-.7 1.4 0 .5.2 1 .6 1.3.4.3.9.4 1.5.4zm23.9 3h-3.8v-11H148l-.1 1.6c-.3 2.7-.7 4.7-1.2 6.1-.5 1.4-1.2 2.4-2 2.9s-2 .8-3.4.8l-.3-3.7c.5 0 .9-.1 1.4-.4.5-.4.9-1.1 1.3-2.2s.6-2.5.7-4.2l.2-4.6h11.3v14.7z"/><path d="M13.1 49.1h-1.7v-9.8h1.7V44l3.8-4.6H19l-4 4.5 4.3 5.2h-2.2l-4-5v5zm7.1-.8c-.6-.6-.9-1.4-.9-2.4s.3-1.7.9-2.4c.6-.6 1.5-.9 2.5-.9s1.8.3 2.5.9c.6.6.9 1.4.9 2.4 0 .9-.3 1.7-.9 2.4-.6.6-1.5.9-2.5.9-1.1.1-1.9-.3-2.5-.9zm1.2-3.6c-.3.3-.4.7-.4 1.3s.2 1 .5 1.3c.3.3.7.5 1.2.5s.9-.2 1.2-.5c.3-.3.5-.8.5-1.3s-.2-.9-.5-1.3c-.3-.3-.7-.5-1.2-.5s-.9.1-1.3.5zm7.7 4.4h-1.6v-6.3h1.4l2.1 2.6 2-2.6h1.4v6.3h-1.6v-3.8L31 47.6l-1.9-2.3v3.8zm13.1 0h-1.6v-4.8h-2.7v4.8h-1.6v-6.3h5.9v6.3zm4.1 0H44v-6.3h1.6v1.7h.9c.9 0 1.6.2 2.1.6.5.4.7.9.7 1.6 0 .7-.2 1.3-.7 1.7s-1.4.7-2.3.7zm0-3.3h-.7v1.9h.7c.8 0 1.2-.3 1.2-.9 0-.7-.4-1-1.2-1zm5.8 3.3h-1.7v-6.3h1.7v2.3h1.1c.2-.7.5-1.3 1.1-1.8.6-.4 1.3-.7 2.1-.7 1 0 1.8.3 2.4.9.6.6.9 1.4.9 2.4 0 .9-.3 1.7-.9 2.4-.6.6-1.4.9-2.4.9-.8 0-1.6-.2-2.1-.7-.6-.5-.9-1.1-1.1-1.9h-1.1v2.5zM55 46c0 .5.1.9.4 1.2.3.3.6.5 1.1.5s.8-.2 1.1-.5c.3-.3.4-.7.4-1.2s-.1-.9-.4-1.2c-.3-.3-.6-.5-1.1-.5-.4 0-.8.2-1.1.5s-.4.7-.4 1.2zm7.4-1.6h-2.1v-1.6H66v1.6h-2v4.7h-1.6v-4.7zm9.5 2.9l.5 1.1c-.6.5-1.4.8-2.4.8s-1.8-.3-2.5-.9c-.6-.6-.9-1.4-.9-2.4 0-.9.3-1.7.9-2.3.6-.6 1.4-.9 2.4-.9.8 0 1.5.3 2.1.8s.9 1.2.9 2.1c0 .4 0 .7-.1.9h-4.5c.1.5.3.8.6 1.1s.8.4 1.3.4c.6-.1 1.2-.3 1.7-.7zM69.8 44c-.9 0-1.5.5-1.6 1.4h3.1c0-.4-.1-.7-.4-1-.3-.3-.6-.4-1.1-.4zm6 7.9h-1.6v-9.1h1.6v.6c.2-.2.5-.4.8-.5.4-.1.7-.2 1.1-.2.9 0 1.6.3 2.1.9.5.6.8 1.4.8 2.3 0 1-.3 1.8-.9 2.4-.6.6-1.4 1-2.4 1-.6 0-1.1-.1-1.5-.3v2.9zm1.4-7.7c-.6 0-1 .2-1.4.7v2.5c.4.2.8.4 1.3.4s1-.2 1.3-.5c.3-.3.5-.8.5-1.3s-.1-.9-.4-1.3-.8-.5-1.3-.5zm10.7 4.9h-1.6v-2.4h-2.7v2.4H82v-6.3h1.6v2.4h2.7v-2.4h1.6v6.3zm4 0h-2.3v-6.3h1.6v1.7h.8c.9 0 1.6.2 2.1.6.5.4.7.9.7 1.6 0 .7-.2 1.3-.7 1.7-.5.5-1.2.7-2.2.7zm0-3.3h-.6v1.9h.6c.8 0 1.2-.3 1.2-.9 0-.7-.4-1-1.2-1zm5.4 3.3h-1.6v-6.3h1.6v6.3zm6.3-4l-2.9 4h-1.6v-6.3h1.6v4l2.9-4h1.6v6.3h-1.6v-4zm-3.6-5.4h1.5c0 .3.1.6.2.7.1.2.3.3.5.3s.4-.1.5-.3.2-.4.2-.7h1.5c0 .7-.2 1.2-.6 1.6-.4.4-.9.6-1.6.6-.7 0-1.3-.2-1.6-.6s-.6-.9-.6-1.6zm14.7 7.3l.8 1.2c-.5.7-1.4 1.1-2.5 1.1-1 0-1.8-.3-2.5-.9-.6-.6-.9-1.4-.9-2.4 0-.9.3-1.7.9-2.3.6-.6 1.4-.9 2.3-.9 1.1 0 2 .3 2.5.9l-.8 1.3c-.4-.4-.9-.6-1.6-.6-.5 0-.9.2-1.2.5-.3.3-.5.7-.5 1.3s.2 1 .5 1.3c.4.3.8.5 1.3.5.7-.2 1.3-.5 1.7-1zm6.7.3l.5 1.1c-.6.5-1.4.8-2.4.8s-1.8-.3-2.5-.9c-.6-.6-.9-1.4-.9-2.4 0-.9.3-1.7.9-2.3.6-.6 1.4-.9 2.4-.9.8 0 1.5.3 2.1.8s.9 1.2.9 2.1c0 .4 0 .7-.1.9h-4.5c.1.5.3.8.6 1.1s.8.4 1.3.4c.6-.1 1.2-.3 1.7-.7zm-2.1-3.3c-.9 0-1.5.5-1.6 1.4h3.1c0-.4-.1-.7-.4-1-.3-.3-.7-.4-1.1-.4zm5.9 7.9h-1.6v-9.1h1.6v.6c.2-.2.5-.4.8-.5.4-.1.7-.2 1.1-.2.9 0 1.6.3 2.1.9.5.6.8 1.4.8 2.3 0 1-.3 1.8-.9 2.4-.6.6-1.4 1-2.4 1-.6 0-1.1-.1-1.5-.3v2.9zm1.5-7.7c-.6 0-1 .2-1.4.7v2.5c.4.2.8.4 1.3.4s1-.2 1.3-.5c.3-.3.5-.8.5-1.3s-.1-.9-.4-1.3-.8-.5-1.3-.5zm4.7 4.9v-6.3h2.5c1.9 0 2.8.5 2.8 1.6 0 .4-.1.7-.3.9-.2.3-.5.4-.8.5.9.2 1.3.7 1.3 1.5 0 1.3-1 1.9-3 1.9h-2.2c-.1 0-.2-.1-.3-.1zm2.6-5h-1v1.4h1c.3 0 .5-.1.7-.2.2-.1.3-.3.3-.5 0-.5-.3-.7-1-.7zm0 2.3h-1v1.4c.6 0 .9.1 1.1.1.4 0 .6-.1.8-.2.2-.1.3-.3.3-.5 0-.5-.4-.8-1.2-.8zm8.9-1.3l-2.9 4h-1.6v-6.3h1.6v4l2.9-4h1.6v6.3h-1.6v-4zm8.2 1.9l.8 1.2c-.5.7-1.4 1.1-2.5 1.1-1 0-1.8-.3-2.5-.9-.6-.6-.9-1.4-.9-2.4 0-.9.3-1.7.9-2.3.6-.6 1.4-.9 2.3-.9 1.1 0 2 .3 2.5.9l-.8 1.3c-.4-.4-.9-.6-1.6-.6-.5 0-.9.2-1.2.5-.3.3-.5.7-.5 1.3s.2 1 .5 1.3c.4.3.8.5 1.3.5.7-.2 1.2-.5 1.7-1z" fill="#567ECE"/><path d="M208.1 36.1c1.3 1.3 3.3 1.3 4.5 0 1.3-1.3 1.3-3.3 0-4.5l-5.2-5.2-4.5 4.5 5.2 5.2zm-5.2-5.2l4.5-4.5c.6-.6.6-1.6 0-2.3-.6-.6-1.6-.6-2.3 0l-4.5 4.5c-.6.6-.6 1.6 0 2.3.6.6 1.6.6 2.3 0zM174.4 54h6.4V39.6h-6.4V54zM168 41.2h6.4v11.2H168V41.2z" fill="#9BC9FF"/><path fill="#1E81CE" d="M208.4 26.3c.4-.9.3-2-.5-2.7-1-.9-2.4-.9-3.4 0l-.6.6-.8-.8 1.3-1.3c.6-.6 1.4-.8 2.2-.7 2.3.3 4.6-.4 6.2-2 2.1-2.1 2.7-5.2 1.5-7.9-.2-.4-.6-.6-1.1-.4-.1 0-.2.1-.3.2l-3.9 3.9-1.9-.4-.4-1.9 3.9-3.9c.3-.3.3-.8 0-1.1-.1-.1-.2-.1-.3-.2-3.7-1.6-7.9.2-9.5 3.8-.5 1.2-.7 2.6-.5 3.9.1.8-.1 1.6-.7 2.2l-1.3 1.3-5.3-5.3-1.1-2.2c-.1-.1-.2-.3-.3-.3l-5.1-2.8c-.3-.2-.7-.1-1 .1l-1.1 1.1c-.3.3-.3.6-.1 1l2.8 5.1c.1.1.2.3.3.3l2.2 1.1 5.3 5.3-1.3 1.3c-.6.6-1.4.8-2.2.7-3.9-.6-7.6 2.1-8.2 6.1-.2 1.3 0 2.7.5 3.9.2.4.6.6 1.1.4.1 0 .2-.1.3-.2l3.9-3.9 1.9.4.4 1.9-3.9 3.9c-.3.3-.3.8 0 1.1.1.1.2.1.3.2 3.7 1.6 7.9-.2 9.5-3.8.5-1.2.7-2.6.5-3.9-.1-.8.1-1.6.7-2.2l1.3-1.3.8.8-.6.6c-.9.9-1 2.4 0 3.4.7.7 1.8.9 2.8.5l4.7 4.7c1.6 1.6 4.1 1.6 5.7 0 1.6-1.6 1.6-4.1 0-5.7l-4.7-4.9zM191 15.6c-.1-.1-.1-.1-.2-.1l-2-1-2.4-4.4.3-.3 4.4 2.4 1 2c0 .1.1.1.1.2l5.4 5.4-1.1 1.1-5.5-5.3zm6.4 11.2c-.9.9-1.3 2.3-1.1 3.5.5 3.1-1.6 5.9-4.7 6.4-.6.1-1.2.1-1.8 0l3.3-3.3c.2-.2.3-.5.2-.7l-.6-2.8c-.1-.3-.3-.6-.6-.6l-2.8-.6c-.3-.1-.5 0-.7.2l-3.3 3.3c-.5-3.1 1.5-6 4.5-6.5.6-.1 1.2-.1 1.8 0 1.3.2 2.6-.2 3.5-1.1l6-6c.9-.9 1.3-2.3 1.1-3.5-.5-3.1 1.6-5.9 4.7-6.4.6-.1 1.2-.1 1.8 0l-3.3 3.3c-.2.2-.3.5-.2.7l.6 2.8c.1.3.3.6.6.6l2.8.6c.3.1.5 0 .7-.2l3.3-3.3c.5 3.1-1.5 6-4.5 6.5-.6.1-1.2.1-1.8 0-1.3-.2-2.6.2-3.5 1.1l-6 6zm4.7-2.4l.8.8-1.1 1.1-.8-.8 1.1-1.1zm-.9 5.9c-.3-.3-.3-.8 0-1.1l4.5-4.5c.3-.3.8-.3 1.1 0s.3.8 0 1.1l-4.5 4.5c-.3.3-.8.3-1.1 0zm10.8 5.2c-.9.9-2.5.9-3.4 0l-4.6-4.6 3.4-3.4 4.6 4.6c1 1 1 2.5 0 3.4zm2.6 5.6c-.9-1.5-2.8-2.1-4.4-1.2l-7.8 4.5c-.4-.6-1.1-1.1-1.8-1.3l-12-3.2c-.9-.2-1.9-.3-2.8 0l-4.2 1.1v-1.4c0-.4-.4-.8-.8-.8h-6.4c-.4 0-.8.4-.8.8v.8H168c-.4 0-.8.4-.8.8v11.2c0 .4.4.8.8.8h5.6v.8c0 .4.4.8.8.8h6.4c.4 0 .8-.4.8-.8v-1.1l1 .5c.8.4 1.6.6 2.5.6h12c1 0 2-.3 2.8-.8l13.5-7.8c1.5-.8 2.1-2.8 1.2-4.3zm-45.8 10.5V42h4.8v9.6h-4.8zm11.2 1.6h-4.8V40.4h4.8v12.8zm32.6-9.1l-13.5 7.8c-.6.4-1.3.5-2 .5h-12c-.6 0-1.2-.1-1.8-.4l-1.7-.9v-8.5l4.6-1.1c.7-.2 1.4-.2 2 0l12 3.2c.9.2 1.4 1.1 1.2 1.9-.2.9-1.1 1.4-1.9 1.2h-.1l-9.6-2.6c-.4-.1-.9.1-1 .6-.1.4.1.9.6 1l9.6 2.6c.3.1.6.1.8.1 1.7 0 3.2-1.4 3.2-3.1v-.3l8.1-4.7c.8-.4 1.7-.2 2.2.6.3.6.1 1.6-.7 2.1z"/></svg>