<?xml version="1.0" encoding="utf-8"?>
<!-- Generator: Adobe Illustrator 22.0.0, SVG Export Plug-In . SVG Version: 6.00 Build 0)  -->
<svg version="1.1" id="Слой_1" xmlns="http://www.w3.org/2000/svg" xmlns:xlink="http://www.w3.org/1999/xlink" x="0px" y="0px"
	 viewBox="0 0 225.9 63.4" enable-background="new 0 0 225.9 63.4" xml:space="preserve">
<g>
	<g>
		<path d="M29.6,33.4h-4.1V14.1H15.3v19.3h-4.1V10.3h18.4V33.4z"/>
		<path d="M40.1,33.4H36V10.3h4.1v11l9.1-11h4.9l-9.5,10.8l10.1,12.3h-5.1l-9.4-11.9V33.4z"/>
		<path d="M76.6,33.4h-4.1V14.1H62.3v19.3h-4.1V10.3h18.4V33.4z"/>
		<path d="M104.9,10.3h4.1l-7.9,17.7c-0.8,1.8-1.7,3.2-2.7,4.1c-1,0.9-2.2,1.3-3.5,1.3c-1.4,0-2.4-0.3-3.2-0.9l1.4-3.4
			c0.6,0.4,1.1,0.6,1.7,0.6c1,0,1.8-0.5,2.3-1.6l0.3-0.8L87.2,10.3h4.6l7.6,12.9L104.9,10.3z"/>
		<path d="M112.2,40h-3.8V18.6h3.8V20c0.5-0.5,1.1-1,2-1.3c0.8-0.3,1.7-0.5,2.6-0.5c2,0,3.7,0.7,4.9,2.1c1.2,1.4,1.8,3.2,1.8,5.4
			c0,2.3-0.7,4.2-2.2,5.7c-1.5,1.5-3.3,2.3-5.7,2.3c-1.5,0-2.7-0.2-3.5-0.7V40z M115.6,21.8c-1.3,0-2.5,0.5-3.4,1.6v6
			c0.9,0.6,1.9,0.9,3.1,0.9c1.3,0,2.3-0.4,3-1.2c0.8-0.8,1.1-1.9,1.1-3.2c0-1.2-0.3-2.2-1-3C117.8,22.2,116.9,21.8,115.6,21.8z"/>
		<path d="M128,22.4l-1-2.8c1.6-0.9,3.4-1.4,5.2-1.4c2.1,0,3.6,0.5,4.5,1.5c0.9,1,1.4,2.6,1.4,4.7v9H135v-1.7
			c-0.9,1.3-2.3,1.9-4.4,1.9c-1.4,0-2.5-0.4-3.4-1.2c-0.8-0.8-1.3-1.9-1.3-3.3c0-1.5,0.5-2.7,1.5-3.6c1-0.8,2.3-1.3,3.9-1.3
			c1.3,0,2.5,0.3,3.4,1c0-1.3-0.1-2.3-0.6-2.9c-0.4-0.6-1.2-0.9-2.2-0.9C130.8,21.4,129.5,21.7,128,22.4z M131.8,30.4
			c1.3,0,2.2-0.5,2.9-1.4v-1.5c-0.6-0.5-1.5-0.7-2.6-0.7c-0.7,0-1.3,0.2-1.7,0.5c-0.4,0.3-0.7,0.8-0.7,1.4c0,0.5,0.2,1,0.6,1.3
			C130.7,30.3,131.2,30.4,131.8,30.4z"/>
		<path d="M155.7,33.4h-3.8V22.4H148l-0.1,1.6c-0.3,2.7-0.7,4.7-1.2,6.1c-0.5,1.4-1.2,2.4-2,2.9c-0.8,0.5-2,0.8-3.4,0.8l-0.3-3.7
			c0.5,0,0.9-0.1,1.4-0.4c0.5-0.4,0.9-1.1,1.3-2.2s0.6-2.5,0.7-4.2l0.2-4.6h11.3V33.4z"/>
	</g>
	<g>
		<g>
			<path fill="#567ECE" d="M13.1,49.1h-1.7v-9.8h1.7V44l3.8-4.6H19l-4,4.5l4.3,5.2h-2.2l-4-5V49.1z"/>
			<path fill="#567ECE" d="M20.2,48.3c-0.6-0.6-0.9-1.4-0.9-2.4s0.3-1.7,0.9-2.4c0.6-0.6,1.5-0.9,2.5-0.9c1,0,1.8,0.3,2.5,0.9
				c0.6,0.6,0.9,1.4,0.9,2.4c0,0.9-0.3,1.7-0.9,2.4c-0.6,0.6-1.5,0.9-2.5,0.9C21.6,49.3,20.8,48.9,20.2,48.3z M21.4,44.7
				C21.1,45,21,45.4,21,46s0.2,1,0.5,1.3c0.3,0.3,0.7,0.5,1.2,0.5c0.5,0,0.9-0.2,1.2-0.5c0.3-0.3,0.5-0.8,0.5-1.3
				c0-0.5-0.2-0.9-0.5-1.3c-0.3-0.3-0.7-0.5-1.2-0.5C22.2,44.2,21.8,44.3,21.4,44.7z"/>
			<path fill="#567ECE" d="M29.1,49.1h-1.6v-6.3h1.4l2.1,2.6l2-2.6h1.4v6.3h-1.6v-3.8L31,47.6h0l-1.9-2.3V49.1z"/>
			<path fill="#567ECE" d="M42.2,49.1h-1.6v-4.8h-2.7v4.8h-1.6v-6.3h5.9V49.1z"/>
			<path fill="#567ECE" d="M46.3,49.1h-2.3v-6.3h1.6v1.7h0.9c0.9,0,1.6,0.2,2.1,0.6c0.5,0.4,0.7,0.9,0.7,1.6c0,0.7-0.2,1.3-0.7,1.7
				S47.2,49.1,46.3,49.1z M46.3,45.8h-0.7v1.9h0.7c0.8,0,1.2-0.3,1.2-0.9C47.5,46.1,47.1,45.8,46.3,45.8z"/>
			<path fill="#567ECE" d="M52.1,49.1h-1.7v-6.3h1.7v2.3h1.1c0.2-0.7,0.5-1.3,1.1-1.8c0.6-0.4,1.3-0.7,2.1-0.7c1,0,1.8,0.3,2.4,0.9
				c0.6,0.6,0.9,1.4,0.9,2.4c0,0.9-0.3,1.7-0.9,2.4c-0.6,0.6-1.4,0.9-2.4,0.9c-0.8,0-1.6-0.2-2.1-0.7c-0.6-0.5-0.9-1.1-1.1-1.9h-1.1
				V49.1z M55,46c0,0.5,0.1,0.9,0.4,1.2c0.3,0.3,0.6,0.5,1.1,0.5s0.8-0.2,1.1-0.5c0.3-0.3,0.4-0.7,0.4-1.2s-0.1-0.9-0.4-1.2
				c-0.3-0.3-0.6-0.5-1.1-0.5c-0.4,0-0.8,0.2-1.1,0.5S55,45.5,55,46z"/>
			<path fill="#567ECE" d="M62.4,44.4h-2.1v-1.6H66v1.6h-2v4.7h-1.6V44.4z"/>
			<path fill="#567ECE" d="M71.9,47.3l0.5,1.1c-0.6,0.5-1.4,0.8-2.4,0.8c-1,0-1.8-0.3-2.5-0.9c-0.6-0.6-0.9-1.4-0.9-2.4
				c0-0.9,0.3-1.7,0.9-2.3c0.6-0.6,1.4-0.9,2.4-0.9c0.8,0,1.5,0.3,2.1,0.8s0.9,1.2,0.9,2.1c0,0.4,0,0.7-0.1,0.9h-4.5
				c0.1,0.5,0.3,0.8,0.6,1.1s0.8,0.4,1.3,0.4C70.8,47.9,71.4,47.7,71.9,47.3z M69.8,44c-0.9,0-1.5,0.5-1.6,1.4h3.1
				c0-0.4-0.1-0.7-0.4-1C70.6,44.1,70.3,44,69.8,44z"/>
			<path fill="#567ECE" d="M75.8,51.9h-1.6v-9.1h1.6v0.6c0.2-0.2,0.5-0.4,0.8-0.5c0.4-0.1,0.7-0.2,1.1-0.2c0.9,0,1.6,0.3,2.1,0.9
				c0.5,0.6,0.8,1.4,0.8,2.3c0,1-0.3,1.8-0.9,2.4c-0.6,0.6-1.4,1-2.4,1c-0.6,0-1.1-0.1-1.5-0.3V51.9z M77.2,44.2
				c-0.6,0-1,0.2-1.4,0.7v2.5c0.4,0.2,0.8,0.4,1.3,0.4c0.5,0,1-0.2,1.3-0.5c0.3-0.3,0.5-0.8,0.5-1.3c0-0.5-0.1-0.9-0.4-1.3
				S77.7,44.2,77.2,44.2z"/>
			<path fill="#567ECE" d="M87.9,49.1h-1.6v-2.4h-2.7v2.4h-1.6v-6.3h1.6v2.4h2.7v-2.4h1.6V49.1z"/>
			<path fill="#567ECE" d="M91.9,49.1h-2.3v-6.3h1.6v1.7h0.8c0.9,0,1.6,0.2,2.1,0.6c0.5,0.4,0.7,0.9,0.7,1.6c0,0.7-0.2,1.3-0.7,1.7
				C93.6,48.9,92.9,49.1,91.9,49.1z M91.9,45.8h-0.6v1.9h0.6c0.8,0,1.2-0.3,1.2-0.9C93.1,46.1,92.7,45.8,91.9,45.8z M97.3,49.1h-1.6
				v-6.3h1.6V49.1z"/>
			<path fill="#567ECE" d="M103.6,45.1l-2.9,4h-1.6v-6.3h1.6v4l2.9-4h1.6v6.3h-1.6V45.1z M100,39.7h1.5c0,0.3,0.1,0.6,0.2,0.7
				c0.1,0.2,0.3,0.3,0.5,0.3c0.2,0,0.4-0.1,0.5-0.3s0.2-0.4,0.2-0.7h1.5c0,0.7-0.2,1.2-0.6,1.6c-0.4,0.4-0.9,0.6-1.6,0.6
				c-0.7,0-1.3-0.2-1.6-0.6S100,40.4,100,39.7z"/>
			<path fill="#567ECE" d="M114.7,47l0.8,1.2c-0.5,0.7-1.4,1.1-2.5,1.1c-1,0-1.8-0.3-2.5-0.9c-0.6-0.6-0.9-1.4-0.9-2.4
				c0-0.9,0.3-1.7,0.9-2.3c0.6-0.6,1.4-0.9,2.3-0.9c1.1,0,2,0.3,2.5,0.9l-0.8,1.3c-0.4-0.4-0.9-0.6-1.6-0.6c-0.5,0-0.9,0.2-1.2,0.5
				c-0.3,0.3-0.5,0.7-0.5,1.3s0.2,1,0.5,1.3c0.4,0.3,0.8,0.5,1.3,0.5C113.7,47.8,114.3,47.5,114.7,47z"/>
			<path fill="#567ECE" d="M121.4,47.3l0.5,1.1c-0.6,0.5-1.4,0.8-2.4,0.8c-1,0-1.8-0.3-2.5-0.9c-0.6-0.6-0.9-1.4-0.9-2.4
				c0-0.9,0.3-1.7,0.9-2.3c0.6-0.6,1.4-0.9,2.4-0.9c0.8,0,1.5,0.3,2.1,0.8s0.9,1.2,0.9,2.1c0,0.4,0,0.7-0.1,0.9h-4.5
				c0.1,0.5,0.3,0.8,0.6,1.1s0.8,0.4,1.3,0.4C120.3,47.9,120.9,47.7,121.4,47.3z M119.3,44c-0.9,0-1.5,0.5-1.6,1.4h3.1
				c0-0.4-0.1-0.7-0.4-1C120.1,44.1,119.7,44,119.3,44z"/>
			<path fill="#567ECE" d="M125.2,51.9h-1.6v-9.1h1.6v0.6c0.2-0.2,0.5-0.4,0.8-0.5c0.4-0.1,0.7-0.2,1.1-0.2c0.9,0,1.6,0.3,2.1,0.9
				c0.5,0.6,0.8,1.4,0.8,2.3c0,1-0.3,1.8-0.9,2.4c-0.6,0.6-1.4,1-2.4,1c-0.6,0-1.1-0.1-1.5-0.3V51.9z M126.7,44.2
				c-0.6,0-1,0.2-1.4,0.7v2.5c0.4,0.2,0.8,0.4,1.3,0.4c0.5,0,1-0.2,1.3-0.5c0.3-0.3,0.5-0.8,0.5-1.3c0-0.5-0.1-0.9-0.4-1.3
				S127.2,44.2,126.7,44.2z"/>
			<path fill="#567ECE" d="M131.4,49.1v-6.3c0.1,0,0.4,0,1.1,0c0.6,0,1.1,0,1.4,0c1.9,0,2.8,0.5,2.8,1.6c0,0.4-0.1,0.7-0.3,0.9
				c-0.2,0.3-0.5,0.4-0.8,0.5v0c0.9,0.2,1.3,0.7,1.3,1.5c0,1.3-1,1.9-3,1.9c-0.3,0-0.7,0-1.3,0c-0.1,0-0.3,0-0.5,0
				c-0.2,0-0.3,0-0.4,0S131.5,49.1,131.4,49.1z M134,44.1c-0.4,0-0.7,0-1,0v1.4h1c0.3,0,0.5-0.1,0.7-0.2c0.2-0.1,0.3-0.3,0.3-0.5
				C135,44.3,134.7,44.1,134,44.1z M134,46.4h-1v1.4c0.6,0,0.9,0.1,1.1,0.1c0.4,0,0.6-0.1,0.8-0.2c0.2-0.1,0.3-0.3,0.3-0.5
				C135.2,46.7,134.8,46.4,134,46.4z"/>
			<path fill="#567ECE" d="M142.9,45.1l-2.9,4h-1.6v-6.3h1.6v4l2.9-4h1.6v6.3h-1.6V45.1z"/>
			<path fill="#567ECE" d="M151.1,47l0.8,1.2c-0.5,0.7-1.4,1.1-2.5,1.1c-1,0-1.8-0.3-2.5-0.9c-0.6-0.6-0.9-1.4-0.9-2.4
				c0-0.9,0.3-1.7,0.9-2.3c0.6-0.6,1.4-0.9,2.3-0.9c1.1,0,2,0.3,2.5,0.9l-0.8,1.3c-0.4-0.4-0.9-0.6-1.6-0.6c-0.5,0-0.9,0.2-1.2,0.5
				c-0.3,0.3-0.5,0.7-0.5,1.3s0.2,1,0.5,1.3c0.4,0.3,0.8,0.5,1.3,0.5C150.1,47.8,150.6,47.5,151.1,47z"/>
		</g>
	</g>
	<g id="Maintenance_tools">
		<g>
			<path fill="#9BC9FF" d="M208.1,36.1c1.3,1.3,3.3,1.3,4.5,0c1.3-1.3,1.3-3.3,0-4.5l-5.2-5.2l-4.5,4.5L208.1,36.1z"/>
			<path fill="#9BC9FF" d="M202.9,30.9l4.5-4.5c0.6-0.6,0.6-1.6,0-2.3c-0.6-0.6-1.6-0.6-2.3,0l-4.5,4.5c-0.6,0.6-0.6,1.6,0,2.3
				C201.2,31.5,202.2,31.5,202.9,30.9z"/>
			<path fill="#9BC9FF" d="M174.4,54h6.4v-2.4V42v-2.4h-6.4v1.6v11.2V54z"/>
			<path fill="#9BC9FF" d="M168,41.2h6.4v11.2H168V41.2z"/>
		</g>
		<path fill="#1E81CE" d="M208.4,26.3c0.4-0.9,0.3-2-0.5-2.7c-1-0.9-2.4-0.9-3.4,0l-0.6,0.6l-0.8-0.8l1.3-1.3
			c0.6-0.6,1.4-0.8,2.2-0.7c2.3,0.3,4.6-0.4,6.2-2c2.1-2.1,2.7-5.2,1.5-7.9c-0.2-0.4-0.6-0.6-1.1-0.4c-0.1,0-0.2,0.1-0.3,0.2
			l-3.9,3.9l-1.9-0.4l-0.4-1.9l3.9-3.9c0.3-0.3,0.3-0.8,0-1.1c-0.1-0.1-0.2-0.1-0.3-0.2c-3.7-1.6-7.9,0.2-9.5,3.8
			c-0.5,1.2-0.7,2.6-0.5,3.9c0.1,0.8-0.1,1.6-0.7,2.2l-1.3,1.3l-5.3-5.3l-1.1-2.2c-0.1-0.1-0.2-0.3-0.3-0.3l-5.1-2.8
			c-0.3-0.2-0.7-0.1-1,0.1l-1.1,1.1c-0.3,0.3-0.3,0.6-0.1,1l2.8,5.1c0.1,0.1,0.2,0.3,0.3,0.3l2.2,1.1l5.3,5.3l-1.3,1.3
			c-0.6,0.6-1.4,0.8-2.2,0.7c-3.9-0.6-7.6,2.1-8.2,6.1c-0.2,1.3,0,2.7,0.5,3.9c0.2,0.4,0.6,0.6,1.1,0.4c0.1,0,0.2-0.1,0.3-0.2
			l3.9-3.9l1.9,0.4l0.4,1.9l-3.9,3.9c-0.3,0.3-0.3,0.8,0,1.1c0.1,0.1,0.2,0.1,0.3,0.2c3.7,1.6,7.9-0.2,9.5-3.8
			c0.5-1.2,0.7-2.6,0.5-3.9c-0.1-0.8,0.1-1.6,0.7-2.2l1.3-1.3l0.8,0.8l-0.6,0.6c-0.9,0.9-1,2.4,0,3.4c0.7,0.7,1.8,0.9,2.8,0.5
			l4.7,4.7c1.6,1.6,4.1,1.6,5.7,0c1.6-1.6,1.6-4.1,0-5.7L208.4,26.3z M191,15.6c-0.1-0.1-0.1-0.1-0.2-0.1l-2-1l-2.4-4.4l0.3-0.3
			l4.4,2.4l1,2c0,0.1,0.1,0.1,0.1,0.2l5.4,5.4l-1.1,1.1L191,15.6z M197.4,26.8c-0.9,0.9-1.3,2.3-1.1,3.5c0.5,3.1-1.6,5.9-4.7,6.4
			c-0.6,0.1-1.2,0.1-1.8,0l3.3-3.3c0.2-0.2,0.3-0.5,0.2-0.7l-0.6-2.8c-0.1-0.3-0.3-0.6-0.6-0.6l-2.8-0.6c-0.3-0.1-0.5,0-0.7,0.2
			l-3.3,3.3c-0.5-3.1,1.5-6,4.5-6.5c0.6-0.1,1.2-0.1,1.8,0c1.3,0.2,2.6-0.2,3.5-1.1l6-6c0.9-0.9,1.3-2.3,1.1-3.5
			c-0.5-3.1,1.6-5.9,4.7-6.4c0.6-0.1,1.2-0.1,1.8,0l-3.3,3.3c-0.2,0.2-0.3,0.5-0.2,0.7l0.6,2.8c0.1,0.3,0.3,0.6,0.6,0.6l2.8,0.6
			c0.3,0.1,0.5,0,0.7-0.2l3.3-3.3c0.5,3.1-1.5,6-4.5,6.5c-0.6,0.1-1.2,0.1-1.8,0c-1.3-0.2-2.6,0.2-3.5,1.1L197.4,26.8z M202.1,24.4
			l0.8,0.8l-1.1,1.1l-0.8-0.8L202.1,24.4z M201.2,30.3c-0.3-0.3-0.3-0.8,0-1.1l4.5-4.5c0.3-0.3,0.8-0.3,1.1,0s0.3,0.8,0,1.1
			l-4.5,4.5C202,30.6,201.5,30.6,201.2,30.3L201.2,30.3z M212,35.5c-0.9,0.9-2.5,0.9-3.4,0l-4.6-4.6l3.4-3.4l4.6,4.6
			C213,33.1,213,34.6,212,35.5C212,35.5,212,35.5,212,35.5z"/>
		<path fill="#1E81CE" d="M214.6,41.1c-0.9-1.5-2.8-2.1-4.4-1.2c0,0,0,0,0,0l-7.8,4.5c-0.4-0.6-1.1-1.1-1.8-1.3l-12-3.2
			c-0.9-0.2-1.9-0.3-2.8,0l-4.2,1.1v-1.4c0-0.4-0.4-0.8-0.8-0.8h-6.4c-0.4,0-0.8,0.4-0.8,0.8v0.8H168c-0.4,0-0.8,0.4-0.8,0.8v11.2
			c0,0.4,0.4,0.8,0.8,0.8h5.6V54c0,0.4,0.4,0.8,0.8,0.8h6.4c0.4,0,0.8-0.4,0.8-0.8v-1.1l1,0.5c0.8,0.4,1.6,0.6,2.5,0.6h12
			c1,0,2-0.3,2.8-0.8l13.5-7.8C214.9,44.6,215.5,42.6,214.6,41.1L214.6,41.1z M168.8,51.6V42h4.8v9.6H168.8z M180,53.2h-4.8V40.4
			h4.8V53.2z M212.6,44.1l-13.5,7.8c-0.6,0.4-1.3,0.5-2,0.5h-12c-0.6,0-1.2-0.1-1.8-0.4l-1.7-0.9v-8.5l4.6-1.1c0.7-0.2,1.4-0.2,2,0
			l12,3.2c0.9,0.2,1.4,1.1,1.2,1.9c-0.2,0.9-1.1,1.4-1.9,1.2c0,0,0,0-0.1,0l-9.6-2.6c-0.4-0.1-0.9,0.1-1,0.6c-0.1,0.4,0.1,0.9,0.6,1
			l9.6,2.6c0.3,0.1,0.6,0.1,0.8,0.1c1.7,0,3.2-1.4,3.2-3.1c0-0.1,0-0.2,0-0.3l8.1-4.7c0.8-0.4,1.7-0.2,2.2,0.6
			C213.6,42.6,213.4,43.6,212.6,44.1L212.6,44.1z"/>
	</g>
</g>
</svg>
