<?xml version="1.0" standalone="no"?>
<!DOCTYPE svg PUBLIC "-//W3C//DTD SVG 20010904//EN"
 "http://www.w3.org/TR/2001/REC-SVG-20010904/DTD/svg10.dtd">
<svg version="1.0" xmlns="http://www.w3.org/2000/svg"
 width="700.000000pt" height="700.000000pt" viewBox="0 0 700.000000 700.000000"
 preserveAspectRatio="xMidYMid meet">
<metadata>
Created by potrace 1.11, written by Peter Selinger 2001-2013
</metadata>
<g transform="translate(0.000000,700.000000) scale(0.100000,-0.100000)"
fill="#000000" stroke="none">
<path d="M5615 6729 c-22 -4 -56 -10 -75 -14 -199 -36 -430 -182 -563 -357
-84 -111 -164 -276 -182 -376 -2 -15 -9 -49 -14 -77 -6 -27 -8 -113 -5 -190 9
-238 9 -239 -23 -307 -22 -45 -57 -90 -125 -160 -52 -53 -100 -98 -106 -100
-6 -2 -174 159 -373 357 l-361 360 -79 157 c-52 105 -87 162 -106 175 -24 17
-510 289 -668 374 -98 52 -119 47 -231 -63 -99 -98 -124 -135 -119 -178 2 -15
38 -89 81 -166 42 -76 90 -164 107 -194 17 -30 39 -71 50 -90 11 -19 33 -60
50 -90 44 -80 101 -182 118 -208 8 -14 78 -55 175 -104 l161 -80 363 -363 363
-363 -106 -105 c-132 -130 -187 -161 -292 -159 -38 0 -133 2 -210 3 -143 2
-206 -6 -317 -42 -349 -115 -609 -419 -666 -779 -9 -58 -8 -284 2 -330 20
-100 58 -214 79 -239 20 -24 77 -43 109 -36 22 5 107 84 308 284 l278 278 129
-26 128 -26 21 -105 c26 -127 27 -132 25 -146 0 -6 -124 -135 -275 -286 -287
-288 -299 -304 -276 -364 18 -47 38 -62 119 -88 135 -45 206 -56 346 -52 72 2
139 6 150 9 11 3 34 8 50 12 286 68 525 257 656 518 93 183 116 332 96 614 -6
85 10 157 49 217 15 22 70 83 121 135 l95 94 54 -54 54 -54 -50 -50 c-152
-152 -165 -340 -34 -484 81 -91 226 -128 339 -87 l40 14 360 -357 c327 -324
366 -360 429 -390 316 -150 675 10 772 344 16 58 22 190 11 245 -12 58 -49
148 -83 198 -19 30 -188 207 -375 394 -250 251 -338 345 -333 357 48 117 17
268 -72 355 -100 97 -263 119 -392 52 -32 -17 -35 -19 -104 -84 l-45 -43 -51
52 c-29 29 -52 54 -52 56 0 8 177 181 210 205 47 36 138 65 191 62 24 -2 94
-6 154 -9 288 -18 552 84 762 293 187 188 286 439 278 712 -4 121 -6 141 -31
230 -33 122 -54 161 -97 180 -22 10 -47 16 -56 15 -9 -2 -22 -4 -29 -4 -7 -1
-139 -127 -293 -281 -194 -194 -286 -279 -298 -276 -9 3 -66 15 -128 27 -111
21 -111 22 -117 53 -22 114 -37 190 -42 207 -3 12 79 100 264 286 148 148 276
282 284 298 16 32 15 66 -4 102 -40 78 -390 146 -573 112z m262 -222 c3 -4
-98 -110 -225 -237 -132 -132 -232 -240 -236 -255 -4 -14 3 -69 13 -122 11
-54 23 -114 26 -133 20 -118 48 -217 67 -237 18 -19 63 -34 148 -49 14 -2 36
-7 50 -10 14 -3 36 -8 50 -10 14 -3 68 -13 120 -24 52 -10 107 -16 121 -13 18
3 107 84 258 235 128 127 235 227 239 223 4 -3 7 -59 6 -123 0 -134 -16 -208
-69 -319 -47 -100 -88 -157 -164 -231 -83 -79 -174 -134 -287 -174 -82 -28
-100 -31 -224 -32 -74 0 -162 2 -195 5 -83 8 -184 -14 -282 -62 -81 -39 -95
-52 -531 -487 -246 -246 -463 -469 -481 -495 -18 -27 -44 -75 -57 -106 -38
-95 -43 -155 -30 -371 13 -224 -57 -416 -210 -576 -93 -96 -178 -150 -311
-196 -76 -26 -105 -31 -215 -34 -69 -2 -133 -1 -142 2 -11 4 45 66 210 231
212 211 261 271 249 305 -2 7 -6 27 -9 43 -2 17 -10 55 -16 85 -6 30 -13 66
-16 80 -22 113 -38 188 -45 207 -17 47 -59 68 -169 87 -14 2 -81 16 -150 30
-187 37 -185 37 -223 12 -18 -12 -130 -120 -249 -240 -243 -244 -226 -238
-226 -81 0 328 201 612 508 719 103 36 177 45 300 39 194 -9 215 -9 277 4 71
14 138 43 203 87 47 32 887 866 932 926 31 40 82 143 91 181 14 56 20 106 19
149 -1 25 -4 106 -7 180 -5 146 6 210 56 335 68 166 218 319 391 398 48 21
113 40 213 61 29 6 214 0 222 -7z m-2832 -249 c17 -10 37 -21 45 -25 8 -3 95
-51 193 -106 l178 -99 73 -147 74 -146 376 -377 377 -377 -76 -77 -77 -77 -64
64 c-36 35 -204 204 -374 374 l-309 310 -153 78 -153 78 -163 295 c-157 284
-163 297 -146 315 17 19 19 18 93 -23 42 -22 90 -49 106 -60z m1987 -2062
c-102 -107 -89 -103 -151 -41 l-55 54 78 76 78 76 54 -53 54 -53 -58 -59z"/>
<path d="M1175 2402 c-48 -10 -78 -57 -81 -127 -1 -27 -3 -58 -3 -67 -1 -17
-26 -18 -388 -18 -349 0 -391 -2 -423 -18 -19 -9 -41 -29 -48 -44 -17 -37 -19
-1592 -1 -1630 6 -14 24 -33 41 -43 28 -16 64 -18 424 -18 217 0 394 -2 395
-6 0 -3 2 -35 3 -71 3 -76 16 -104 56 -125 44 -23 937 -22 981 1 39 20 60 70
58 137 -1 29 -1 64 0 79 l1 27 98 -49 c114 -56 167 -75 253 -90 44 -7 353 -10
989 -8 l925 3 94 33 c51 18 106 41 121 52 16 11 30 20 33 20 5 0 57 30 462
265 154 89 370 214 480 277 336 194 528 304 571 329 23 13 108 62 190 109 170
98 238 155 281 237 41 77 54 121 57 189 12 259 -198 473 -453 459 -36 -2 -88
-10 -116 -19 -38 -12 -315 -164 -465 -255 -8 -5 -100 -59 -205 -119 -104 -60
-254 -147 -333 -192 l-143 -83 -54 55 c-88 89 -114 99 -485 198 -391 103 -652
173 -695 186 -71 20 -466 125 -490 130 -11 2 -31 8 -45 13 -126 46 -316 67
-435 47 -33 -6 -564 -136 -616 -152 -15 -4 -17 9 -21 108 -2 72 -9 121 -17
134 -32 49 -26 49 -516 50 -253 0 -469 -2 -480 -4z m5211 -333 c150 -56 188
-246 71 -356 -18 -16 -167 -108 -332 -202 -165 -95 -325 -187 -355 -205 -48
-29 -333 -193 -446 -258 -23 -12 -181 -104 -353 -203 -171 -99 -347 -199 -390
-222 -146 -79 -95 -76 -1096 -76 -1023 0 -920 -9 -1152 105 -138 68 -143 71
-144 102 -4 255 2 1120 8 1127 6 6 136 42 233 64 8 2 107 26 220 54 296 74
313 74 600 -4 74 -20 142 -38 151 -40 9 -2 47 -12 85 -23 38 -11 107 -30 154
-42 97 -26 209 -56 260 -70 41 -12 467 -125 660 -176 172 -45 214 -60 251 -91
83 -70 97 -215 28 -301 -32 -40 -116 -82 -165 -82 -22 0 -120 22 -219 49 -99
26 -265 71 -370 99 -104 28 -325 87 -490 132 -164 44 -310 80 -323 80 -69 0
-119 -67 -100 -137 11 -42 46 -68 116 -88 31 -8 73 -20 92 -25 19 -6 186 -50
370 -99 184 -49 371 -99 415 -111 44 -12 154 -42 245 -66 91 -25 192 -47 226
-51 117 -11 241 35 329 121 85 83 129 179 134 296 2 30 3 56 4 56 20 14 1119
643 1135 650 39 16 92 14 148 -7z"/>
</g>
</svg>
